<?xml version="1.0" encoding="UTF-8" standalone="no"?>
<svg
   xmlns:dc="http://purl.org/dc/elements/1.1/"
   xmlns:cc="http://creativecommons.org/ns#"
   xmlns:rdf="http://www.w3.org/1999/02/22-rdf-syntax-ns#"
   xmlns:svg="http://www.w3.org/2000/svg"
   xmlns="http://www.w3.org/2000/svg"
   xmlns:sodipodi="http://sodipodi.sourceforge.net/DTD/sodipodi-0.dtd"
   xmlns:inkscape="http://www.inkscape.org/namespaces/inkscape"
   viewBox="0 0 362.73401 411.38"
   id="svg3691"
   version="1.1"
   inkscape:version="0.91 r13725"
   sodipodi:docname="html5.svg"
   width="362.73401"
   height="411.38">
  <metadata
     id="metadata3711">
    <rdf:RDF>
      <cc:Work
         rdf:about="">
        <dc:format>image/svg+xml</dc:format>
        <dc:type
           rdf:resource="http://purl.org/dc/dcmitype/StillImage" />
        <dc:title>HTML5 Logo</dc:title>
      </cc:Work>
    </rdf:RDF>
  </metadata>
  <defs
     id="defs3709" />
  <sodipodi:namedview
     pagecolor="#ffffff"
     bordercolor="#666666"
     borderopacity="1"
     objecttolerance="10"
     gridtolerance="10"
     guidetolerance="10"
     inkscape:pageopacity="0"
     inkscape:pageshadow="2"
     inkscape:window-width="1301"
     inkscape:window-height="744"
     id="namedview3707"
     showgrid="false"
     inkscape:zoom="0.4609375"
     inkscape:cx="-2.3780047"
     inkscape:cy="36.953553"
     inkscape:window-x="65"
     inkscape:window-y="24"
     inkscape:window-maximized="1"
     inkscape:current-layer="svg3691" />
  <title
     id="title3693">HTML5 Logo</title>
  <polygon
     points="437.367,100.62 404.321,470.819 255.778,512 107.644,470.877 74.633,100.62 "
     id="polygon3695"
     style="fill:#e44d26"
     transform="translate(-74.495072,-99.603796)" />
  <polygon
     points="256,480.523 376.03,447.246 404.27,130.894 256,130.894 "
     id="polygon3697"
     style="fill:#f16529"
     transform="translate(-74.495072,-99.603796)" />
  <polygon
     points="191.76,221.716 256,221.716 256,176.305 255.843,176.305 142.132,176.305 143.219,188.488 154.38,313.627 256,313.627 256,268.217 195.91,268.217 "
     id="polygon3699"
     style="fill:#ebebeb"
     transform="translate(-74.495072,-99.603796)" />
  <polygon
     points="256,433.399 256,386.153 255.801,386.206 205.227,372.55 201.994,336.333 177.419,336.333 156.409,336.333 162.771,407.634 255.791,433.457 "
     id="polygon3701"
     style="fill:#ebebeb"
     transform="translate(-74.495072,-99.603796)" />
  <polygon
     points="311.761,313.627 306.49,372.521 255.843,386.191 255.843,433.435 348.937,407.634 349.62,399.962 360.291,280.411 361.399,268.217 349.162,268.217 255.843,268.217 255.843,313.627 "
     id="polygon3703"
     style="fill:#ffffff"
     transform="translate(-74.495072,-99.603796)" />
  <polygon
     points="255.843,221.605 255.843,221.716 365.385,221.716 365.385,221.716 365.531,221.716 366.442,211.509 368.511,188.488 369.597,176.305 255.843,176.305 255.843,204.509 "
     id="polygon3705"
     style="fill:#ffffff"
     transform="translate(-74.495072,-99.603796)" />
</svg>
